{"title":"Toy Story 3.2010.CAM.XviD.FEEL-FREE","uid":5637799,"size":947967772,"categoryP":"video","categoryS":"movies","magnet":"?xt=urn:btih:1cdddb3e0682fc7ac64244a67d5f1f941f31efd1&amp;dn=Toy+Story+3.2010.CAM.XviD.FEEL-FREE&amp;tr=udp%3A%2F%2Ftracker.openbittorrent.com%3A80&amp;tr=udp%3A%2F%2Fopen.demonii.com%3A1337&amp;tr=udp%3A%2F%2Ftracker.coppersurfer.tk%3A6969&amp;tr=udp%3A%2F%2Fexodus.desync.com%3A6969","seeders":0,"leechers":0,"uploader":"raymondhome","files":-1,"time":1276957190,"description":"Love for All and Sharing is the first step to solving all the problems of humanity.\n\nWebsites I want to share.\n\n    &lt;a href=&quot;\nhttp://www.shareintl.org/&quot; rel=&quot;nofollow&quot; target=&quot;_NEW&quot;&gt;\nhttp://www.shareintl.org/&lt;/a&gt;\n\n    &lt;a href=&quot;\nhttp://www.lightmiddleway.com&quot; rel=&quot;nofollow&quot; target=&quot;_NEW&quot;&gt;\nhttp://www.lightmiddleway.com&lt;/a&gt;\n\n\nThank you very much\n\nNo credit for me...credit to EVERYONE for sharing\n &lt;a href=&quot;\nhttp://thepiratebay.se/user/raymondhome/&quot; rel=&quot;nofollow&quot; target=&quot;_NEW&quot;&gt;\nhttp://thepiratebay.se/user/raymondhome/&lt;/a&gt;\n\nPLOT\nWoody, Buzz, and the rest of their toy-box friends are dumped in a day-care center after their owner, Andy, departs for college.\n\nIMDb RATING: 9.5/10 (1,701 votes)\n\nLanguage: English\nSource Video:Relizlab.Thanks\nSource Audio:Lu.Thanks\nEncoder: Tony2\n.............................................\nGeneral\nDuration : 1h 34mn\nOverall bit rate : 1 341 Kbps\n..............................................\nVideo\nFormat : xvid\nCodec ID : xvid\nDuration : 1h 34mn\nBit rate : 1 200 Kbps\nWidth : 704 pixels\nHeight : 304 pixels\nDisplay aspect ratio : 2.35:1\nFrame rate : 25.000 fps\nResolution : 24 bits\nBits/(Pixel*Frame) : 0.224\nStream size : 808 MiB (89%)\n...............................................\nAudio\nID : 1\nFormat : MPEG Audio\nFormat version : Version 1\nFormat profile : Layer 3\nFormat settings, Mode : Joint stereo / MS Stereo\nCodec ID : 55\nCodec ID/Hint : MP3\nDuration : 1h 34mn\nBit rate mode : Constant\nBit rate : 128 Kbps\nChannel(s) : 2 channels\nSampling rate : 48.0 KHz\nResolution : 16 bits\nStream size : 86.2 MiB (10%)\nAlignment : Aligned on interleaves\nInterleave, duration : 24 ms (0.60 video frame)\nInterleave, preload duration : 24 ms\nWriting library : LAME3.97\n\ncredit FEEL-FREE &amp; pitic BIG BIG BIG TIME &amp; to all the people who made it possible for us to share this...especially EVERYONE involve in the production of the movie...IF YOU LIKE IT...BUY IT :)\n\n*****help what we can with others in need...the world is ONE big family*****","torrent":{"xt":"urn:btih:1cdddb3e0682fc7ac64244a67d5f1f941f31efd1","amp;dn":"Toy+Story+3.2010.CAM.XviD.FEEL-FREE","amp;tr":["udp%3A%2F%2Ftracker.openbittorrent.com%3A80","udp%3A%2F%2Fopen.demonii.com%3A1337","udp%3A%2F%2Ftracker.coppersurfer.tk%3A6969","udp%3A%2F%2Fexodus.desync.com%3A6969"],"infoHash":"1cdddb3e0682fc7ac64244a67d5f1f941f31efd1","infoHashBuffer":{"type":"Buffer","data":[28,221,219,62,6,130,252,122,198,66,68,166,125,95,31,148,31,49,239,209]},"announce":[],"urlList":[]}}